<svg width="18" height="16" viewBox="0 0 18 16" fill="none" xmlns="http://www.w3.org/2000/svg">
<path fill-rule="evenodd" clip-rule="evenodd" d="M1.49999 0.5C1.03975 0.5 0.666656 0.873096 0.666656 1.33333C0.666656 1.79357 1.03975 2.16667 1.49999 2.16667V1.33333L1.5 2.16667H1.50003H1.50017H1.50027H1.50039H1.50053H1.5007H1.50158H1.5028H1.50354H1.50394H1.50437H1.50627H1.50851H1.50912H1.50975H1.51108H1.54312H1.66275H2.07291H2.50147L4.43738 10.6847C4.53719 11.1239 4.96692 11.4025 5.40586 11.3186C5.45659 11.3283 5.50895 11.3333 5.56249 11.3333H14C14.3474 11.3333 14.6583 11.1179 14.7803 10.7926L17.2803 4.12594C17.3762 3.87002 17.3406 3.58332 17.1849 3.35867C17.0292 3.13403 16.7733 3 16.5 3H4.40003L3.97927 1.14865C3.89304 0.769242 3.55574 0.5 3.16666 0.5H2.07291H1.66275H1.54312H1.53803H1.53325H1.5321H1.53097H1.52877H1.52459H1.5172H1.51636H1.51555H1.51475H1.51397H1.51322H1.51249H1.51108H1.50627H1.50437H1.50394H1.50354H1.5028H1.5007H1.50039H1.50027H1.50017H1.50003H1.5L1.49999 1.33333V0.5ZM4.77882 4.66667L5.91518 9.66667H13.4225L15.2975 4.66667H4.77882ZM7.33332 12.1667C6.41285 12.1667 5.66666 12.9129 5.66666 13.8333C5.66666 14.7538 6.41285 15.5 7.33332 15.5C8.2538 15.5 8.99999 14.7538 8.99999 13.8333C8.99999 12.9129 8.2538 12.1667 7.33332 12.1667ZM10.6667 13.8333C10.6667 12.9129 11.4128 12.1667 12.3333 12.1667C13.2538 12.1667 14 12.9129 14 13.8333C14 14.7538 13.2538 15.5 12.3333 15.5C11.4128 15.5 10.6667 14.7538 10.6667 13.8333Z" fill="#FF7A00"/>
</svg>
