<svg width="13" height="14" viewBox="0 0 13 14" fill="none" xmlns="http://www.w3.org/2000/svg">
<path fill-rule="evenodd" clip-rule="evenodd" d="M12.0462 13.9796C11.8507 13.9793 11.6647 13.895 11.5356 13.7481L8.90759 10.7729C7.28604 11.7944 5.26491 11.9501 3.50599 11.1891C1.74706 10.4281 0.476841 8.8483 0.111232 6.96699C-0.36903 4.53905 0.73474 2.07228 2.8651 0.812483C4.99547 -0.447318 7.68884 -0.226012 9.58499 1.36463C11.4811 2.95528 12.1675 5.56914 11.2973 7.88612C11.1638 8.23769 10.7706 8.41449 10.419 8.281C10.0675 8.14752 9.89068 7.7543 10.0242 7.40273C10.5342 6.04576 10.3551 4.52574 9.54347 3.32456C8.73186 2.12337 7.38846 1.39 5.93916 1.35693C4.58758 1.3154 3.29202 1.8979 2.42606 2.93646C1.01733 4.62071 1.03936 7.07843 2.47805 8.73716C3.91675 10.3959 6.34667 10.7651 8.21315 9.60863C8.78091 9.27482 9.5062 9.39523 9.93565 9.89458L12.5637 12.8698C12.74 13.0706 12.7827 13.356 12.6726 13.5995C12.5626 13.843 12.3203 13.9997 12.053 14L12.0462 13.9796Z" fill="white"/>
</svg>
