<svg width="16" height="16" viewBox="0 0 16 16" fill="none" xmlns="http://www.w3.org/2000/svg">
<path fill-rule="evenodd" clip-rule="evenodd" d="M15.2559 1.92259C15.5814 1.59715 15.5814 1.06951 15.2559 0.744078C14.9305 0.418641 14.4028 0.418641 14.0774 0.744078L8 6.82149L1.92259 0.744078C1.59715 0.418641 1.06952 0.418641 0.744079 0.744078C0.418642 1.06951 0.418642 1.59715 0.744079 1.92259L6.82149 8L0.744078 14.0774C0.418641 14.4028 0.418641 14.9305 0.744078 15.2559C1.06951 15.5814 1.59715 15.5814 1.92259 15.2559L8 9.17851L14.0774 15.2559C14.4028 15.5814 14.9305 15.5814 15.2559 15.2559C15.5814 14.9305 15.5814 14.4028 15.2559 14.0774L9.17851 8L15.2559 1.92259Z" fill="#1C294D"/>
</svg>
