<svg width="18" height="18" viewBox="0 0 18 18" fill="none" xmlns="http://www.w3.org/2000/svg">
<path fill-rule="evenodd" clip-rule="evenodd" d="M9.00005 17.3337C4.39768 17.3337 0.666718 13.6027 0.666718 9.00033C0.666718 4.39795 4.39768 0.666992 9.00005 0.666992C13.6024 0.666992 17.3334 4.39795 17.3334 9.00033C17.3334 13.6027 13.6024 17.3337 9.00005 17.3337ZM9.00005 2.33366C5.31815 2.33366 2.33338 5.31843 2.33338 9.00033C2.33338 12.6822 5.31815 15.667 9.00005 15.667C12.6819 15.667 15.6667 12.6822 15.6667 9.00033C15.6667 5.31843 12.6819 2.33366 9.00005 2.33366ZM9.00005 7.95866C9.57535 7.95866 10.0417 8.42503 10.0417 9.00033V12.3337C10.0417 12.909 9.57535 13.3753 9.00005 13.3753C8.42475 13.3753 7.95838 12.909 7.95838 12.3337V9.00033C7.95838 8.42503 8.42475 7.95866 9.00005 7.95866ZM9.00005 4.83366C8.42475 4.83366 7.95838 5.30003 7.95838 5.87533C7.95838 6.45062 8.42475 6.91699 9.00005 6.91699C9.57535 6.91699 10.0417 6.45062 10.0417 5.87533C10.0417 5.30003 9.57535 4.83366 9.00005 4.83366Z" fill="#27AE60"/>
</svg>
